<svg width="54" height="54" viewBox="0 0 54 54" fill="none" xmlns="http://www.w3.org/2000/svg">
<g filter="url(#filter0_b_2_174)">
<rect x="1" y="1" width="52" height="52" rx="16" fill="#51535D"/>
<rect x="1" y="1" width="52" height="52" rx="16" stroke="url(#paint0_linear_2_174)" stroke-opacity="0.4"/>
</g>
<path d="M15 28.1209H21.6051C21.8115 31.9401 23.0288 35.6358 25.1326 38.83C22.4974 38.416 20.0738 37.1406 18.2405 35.203C16.4072 33.2654 15.2676 30.7749 15 28.1209ZM15 25.709C15.2676 23.055 16.4072 20.5646 18.2405 18.627C20.0738 16.6894 22.4974 15.4139 25.1326 15C23.0288 18.1941 21.8115 21.8899 21.6051 25.709H15ZM38.9988 25.709H32.3937C32.1873 21.8899 30.97 18.1941 28.8662 15C31.5014 15.4139 33.925 16.6894 35.7583 18.627C37.5916 20.5646 38.7312 23.055 38.9988 25.709ZM38.9988 28.1209C38.7312 30.7749 37.5916 33.2654 35.7583 35.203C33.925 37.1406 31.5014 38.416 28.8662 38.83C30.97 35.6358 32.1873 31.9401 32.3937 28.1209H39H38.9988ZM24.0207 28.1209H29.9781C29.7796 31.3764 28.7544 34.5276 26.9994 37.2767C25.2443 34.5276 24.2191 31.3764 24.0207 28.1209ZM24.0207 25.709C24.2191 22.4535 25.2443 19.3024 26.9994 16.5533C28.7544 19.3024 29.7796 22.4535 29.9781 25.709H24.0207Z" fill="white"/>
<defs>
<filter id="filter0_b_2_174" x="-5.5" y="-5.5" width="65" height="65" filterUnits="userSpaceOnUse" color-interpolation-filters="sRGB">
<feFlood flood-opacity="0" result="BackgroundImageFix"/>
<feGaussianBlur in="BackgroundImage" stdDeviation="3"/>
<feComposite in2="SourceAlpha" operator="in" result="effect1_backgroundBlur_2_174"/>
<feBlend mode="normal" in="SourceGraphic" in2="effect1_backgroundBlur_2_174" result="shape"/>
</filter>
<linearGradient id="paint0_linear_2_174" x1="1.49057" y1="4.63998" x2="54.0941" y2="5.86094" gradientUnits="userSpaceOnUse">
<stop stop-color="white" stop-opacity="0.2"/>
<stop offset="0.475322" stop-color="white" stop-opacity="0.1"/>
<stop offset="1" stop-color="white" stop-opacity="0.2"/>
</linearGradient>
</defs>
</svg>
