<svg width="210" height="210" viewBox="0 0 210 210" fill="none" xmlns="http://www.w3.org/2000/svg">
<path d="M65.966 51.9063C65.966 51.9063 90.0853 70.2091 126.753 35.9859C159.317 5.5925 185.906 53.5464 186.093 76.5106C186.334 106.259 153.528 130.061 169.449 149.6C185.369 169.139 137.876 201.403 112.28 173.48C80.4391 138.745 71.8128 166.967 53.6639 166.967C40.6381 166.967 13.8948 134.602 31.9543 110.522C47.1511 90.26 38.8633 83.5353 34.8488 76.5106C29.0597 66.3794 42.8091 38.8805 65.966 51.9063Z" fill="#F3F5F9"/>
<path d="M160.556 77.0601C159.123 77.0601 157.963 78.2209 157.963 79.6528V187.639C157.963 188.288 157.436 188.814 156.788 188.814H55.4414C54.7936 188.814 54.2664 188.287 54.2664 187.639V158.584C54.2664 157.152 53.1055 155.991 51.6736 155.991C50.2417 155.991 49.0808 157.152 49.0808 158.584V187.639C49.0808 191.147 51.9342 194 55.4414 194H156.788C160.295 194 163.148 191.147 163.148 187.639V79.6528C163.148 78.2206 161.988 77.0601 160.556 77.0601Z" fill="#DADEE3"/>
<path d="M156.788 40.149H137.97C138.055 39.5516 138.101 38.9425 138.101 38.3219C138.101 31.1659 132.279 25.3442 125.124 25.3442C117.968 25.3442 112.146 31.1659 112.146 38.3219C112.146 38.9421 112.193 39.5516 112.277 40.149H83.9947C83.312 40.1542 82.6448 40.4255 82.1615 40.9085L49.84 73.23C49.3588 73.7136 49.0825 74.3812 49.0808 75.0633V145.784C49.0808 147.216 50.2417 148.377 51.6736 148.377C53.1055 148.377 54.2664 147.216 54.2664 145.784V77.656H80.2269C83.7344 77.656 86.5875 74.8026 86.5875 71.2954V45.3345H114.213C116.525 48.9195 120.55 51.2996 125.124 51.2996C129.697 51.2996 133.723 48.9191 136.035 45.3345H156.788C157.436 45.3345 157.963 45.8617 157.963 46.5096V66.8525C157.963 68.2844 159.123 69.4452 160.556 69.4452C161.988 69.4452 163.148 68.2844 163.148 66.8525V46.5096C163.148 43.0024 160.295 40.149 156.788 40.149ZM80.2269 72.4705H57.9332L81.4023 49.0014V71.2954C81.402 71.9433 80.8751 72.4705 80.2269 72.4705ZM125.124 46.1141C120.827 46.1141 117.332 42.6187 117.332 38.3219C117.332 34.0252 120.827 30.5298 125.124 30.5298C129.42 30.5298 132.916 34.0252 132.916 38.3219C132.916 42.6187 129.42 46.1141 125.124 46.1141Z" fill="#DADEE3"/>
<path d="M97.5565 140.173C98.4795 141.268 100.115 141.408 101.21 140.484C102.374 139.502 104.027 138.94 105.749 138.94H105.773C107.503 138.945 109.163 139.518 110.327 140.511C110.815 140.928 111.414 141.132 112.009 141.132C112.741 141.132 113.469 140.823 113.982 140.222C114.912 139.133 114.782 137.497 113.693 136.567C111.579 134.762 108.772 133.763 105.788 133.754C105.775 133.754 105.761 133.754 105.748 133.754C102.78 133.754 99.9823 134.735 97.867 136.519C96.7725 137.443 96.6335 139.079 97.5565 140.173Z" fill="#DADEE3"/>
<path d="M119.961 129.332C120.015 129.338 120.071 129.339 120.126 129.341C120.159 129.343 120.191 129.346 120.224 129.347H120.238C121.664 129.347 122.823 128.195 122.831 126.768C122.838 125.51 121.947 124.456 120.759 124.214C120.75 124.212 120.741 124.212 120.732 124.21C120.657 124.195 120.582 124.183 120.505 124.175C120.474 124.172 120.442 124.172 120.411 124.17C120.358 124.167 120.306 124.161 120.252 124.161H120.222C120.217 124.161 120.212 124.161 120.207 124.161C120.118 124.161 120.03 124.166 119.943 124.175C118.635 124.306 117.627 125.411 117.627 126.754C117.627 128.083 118.64 129.177 119.93 129.328C119.94 129.328 119.951 129.331 119.961 129.332Z" fill="#DADEE3"/>
<path d="M91.992 124.161C90.5601 124.161 89.4141 125.322 89.4141 126.754C89.4141 128.186 90.5901 129.347 92.022 129.347C93.4539 129.347 94.6148 128.186 94.6148 126.754C94.6148 125.322 93.4539 124.161 92.022 124.161H91.992Z" fill="#DADEE3"/>
<path d="M81.0857 109.376C76.4287 115.098 73.8643 122.32 73.8643 129.71C73.8643 147.493 88.3319 161.961 106.115 161.961C123.899 161.961 138.366 147.493 138.366 129.71C138.366 122.318 135.8 115.096 131.142 109.373C126.552 103.734 120.134 99.7732 113.069 98.2196C111.669 97.9109 110.288 98.7966 109.98 100.195C109.672 101.593 110.556 102.976 111.955 103.284C117.881 104.587 123.267 107.912 127.121 112.647C131.028 117.447 133.18 123.507 133.18 129.71C133.18 144.634 121.039 156.775 106.115 156.775C91.1916 156.775 79.0498 144.634 79.0498 129.71C79.0498 123.508 81.2011 117.449 85.1076 112.649C88.9601 107.916 94.3444 104.59 100.269 103.286C101.667 102.978 102.551 101.594 102.243 100.196C101.935 98.7973 100.552 97.914 99.1535 98.221C92.0908 99.7767 85.6742 103.738 81.0857 109.376Z" fill="#DADEE3"/>
<path d="M106.104 88.7386C107.532 88.7386 108.692 87.583 108.697 86.1535L108.722 77.7473C108.727 76.3154 107.569 75.1511 106.137 75.147C106.134 75.147 106.132 75.147 106.129 75.147C104.701 75.147 103.541 76.3027 103.536 77.7321L103.511 86.1383C103.507 87.5702 104.664 88.7345 106.096 88.7386H106.104Z" fill="#DADEE3"/>
<path d="M93.5703 92.3213C94.0236 92.3213 94.483 92.2024 94.8999 91.9525C96.1285 91.2168 96.5278 89.6245 95.7922 88.3959L91.4246 81.104C90.6889 79.8753 89.0966 79.4757 87.868 80.2117C86.6393 80.9474 86.2401 82.5397 86.9757 83.7683L91.3433 91.0602C91.8294 91.8716 92.6888 92.3213 93.5703 92.3213Z" fill="#DADEE3"/>
<path d="M118.616 92.4361C119.492 92.4361 120.347 91.9918 120.835 91.1884L125.247 83.9207C125.989 82.6966 125.599 81.1019 124.375 80.3589C123.151 79.6164 121.557 80.006 120.814 81.2301L116.402 88.4978C115.659 89.722 116.049 91.3167 117.273 92.0596C117.694 92.3147 118.158 92.4361 118.616 92.4361Z" fill="#DADEE3"/>
<path d="M55.2594 40.7437C55.7655 41.2501 56.4293 41.5032 57.0927 41.5032C57.7561 41.5032 58.4198 41.2501 58.9259 40.7437L61.1087 38.5609L63.2915 40.7437C63.7976 41.2498 64.4613 41.5032 65.1247 41.5032C65.7881 41.5032 66.4519 41.2501 66.958 40.7437C67.9706 39.7311 67.9706 38.0894 66.958 37.0771L64.7752 34.8944L66.958 32.7116C67.9706 31.699 67.9706 30.0573 66.958 29.0451C65.9454 28.0325 64.3037 28.0325 63.2915 29.0451L61.1087 31.2278L58.9259 29.0451C57.9134 28.0325 56.2716 28.0325 55.2594 29.0451C54.2469 30.0576 54.2469 31.6994 55.2594 32.7116L57.4422 34.8944L55.2594 37.0771C54.2469 38.0894 54.2469 39.7311 55.2594 40.7437Z" fill="#DADEE3"/>
<path d="M98.6073 28.4257C99.1134 28.9322 99.7772 29.1853 100.441 29.1853C101.104 29.1853 101.768 28.9322 102.274 28.4257L103.94 26.7595L105.607 28.4257C106.113 28.9319 106.777 29.1853 107.44 29.1853C108.104 29.1853 108.768 28.9322 109.274 28.4257C110.287 27.4132 110.287 25.7714 109.274 24.7592L107.607 23.0926L109.274 21.426C110.287 20.4134 110.287 18.7716 109.274 17.7594C108.261 16.7469 106.62 16.7469 105.607 17.7594L103.941 19.4257L102.274 17.7594C101.262 16.7469 99.6199 16.7469 98.6076 17.7594C97.5951 18.772 97.5951 20.4137 98.6076 21.426L100.274 23.0926L98.6076 24.7592C97.5944 25.7714 97.5944 27.4132 98.6073 28.4257Z" fill="#DADEE3"/>
<path d="M56.1563 55.546C56.1563 49.9999 51.6441 45.4878 46.098 45.4878C40.5519 45.4878 36.0398 49.9999 36.0398 55.546C36.0398 61.0921 40.5519 65.6043 46.098 65.6043C51.6441 65.6043 56.1563 61.0921 56.1563 55.546ZM46.098 60.4187C43.4112 60.4187 41.2253 58.2328 41.2253 55.546C41.2253 52.8592 43.4112 50.6733 46.098 50.6733C48.7848 50.6733 50.9707 52.8592 50.9707 55.546C50.9707 58.2328 48.7848 60.4187 46.098 60.4187Z" fill="#DADEE3"/>
<path d="M170.535 27.9368L172.201 26.2702C173.214 25.2576 173.214 23.6159 172.201 22.6037C171.188 21.5911 169.547 21.5911 168.534 22.6037L166.868 24.27L165.202 22.6037C164.189 21.5911 162.547 21.5911 161.535 22.6037C160.522 23.6162 160.522 25.258 161.535 26.2702L163.201 27.9368L161.535 29.6035C160.522 30.616 160.522 32.2578 161.535 33.27C162.041 33.7761 162.705 34.0295 163.368 34.0295C164.032 34.0295 164.696 33.7764 165.202 33.27L166.868 31.6037L168.535 33.27C169.041 33.7761 169.705 34.0295 170.368 34.0295C171.032 34.0295 171.695 33.7764 172.202 33.27C173.214 32.2574 173.214 30.6157 172.202 29.6035L170.535 27.9368Z" fill="#DADEE3"/>
</svg>
