<svg width="54" height="54" viewBox="0 0 54 54" fill="none" xmlns="http://www.w3.org/2000/svg">
<defs>
<filter id="filter0_b_2_178" x="-5.5" y="-5.5" width="65" height="65" filterUnits="userSpaceOnUse" color-interpolation-filters="sRGB">
<feFlood flood-opacity="0" result="BackgroundImageFix"/>
<feGaussianBlur in="BackgroundImage" stdDeviation="3"/>
<feComposite in2="SourceAlpha" operator="in" result="effect1_backgroundBlur_2_178"/>
<feBlend mode="normal" in="SourceGraphic" in2="effect1_backgroundBlur_2_178" result="shape"/>
</filter>
<linearGradient id="paint0_linear_2_178" x1="1.49057" y1="4.63998" x2="54.0941" y2="5.86094" gradientUnits="userSpaceOnUse">
<stop stop-color="white" stop-opacity="0.2"/>
<stop offset="0.475322" stop-color="white" stop-opacity="0.1"/>
<stop offset="1" stop-color="white" stop-opacity="0.2"/>
</linearGradient>
</defs>
<g filter="url(#filter0_b_2_178)">
<rect x="1" y="1" width="52" height="52" rx="16" fill="#51535D"/>
<rect x="1" y="1" width="52" height="52" rx="16" stroke="url(#paint0_linear_2_178)" stroke-opacity="0.4"/>
</g>
<path d="M38.9366 23.6172C38.8611 23.395 38.7223 23.1998 38.5372 23.0557C38.3521 22.9115 38.1288 22.8247 37.895 22.806L31.0537 22.2624L28.0933 15.7092C27.999 15.4981 27.8457 15.3188 27.6518 15.193C27.4578 15.0672 27.2317 15.0001 27.0005 15C26.7693 14.9999 26.5431 15.0667 26.349 15.1923C26.155 15.3179 26.0014 15.497 25.9069 15.708L22.9465 22.2624L16.1052 22.806C15.8754 22.8242 15.6556 22.9083 15.4723 23.0481C15.289 23.1879 15.1498 23.3776 15.0714 23.5944C14.9931 23.8113 14.9788 24.0461 15.0304 24.2709C15.0821 24.4956 15.1973 24.7007 15.3624 24.8616L20.4181 29.79L18.6301 37.5325C18.5758 37.7669 18.5932 38.0121 18.68 38.2365C18.7668 38.4608 18.9191 38.6539 19.117 38.7906C19.3149 38.9274 19.5494 39.0015 19.79 39.0033C20.0305 39.0051 20.2661 38.9346 20.4661 38.8009L27.0001 34.4449L33.5341 38.8009C33.7385 38.9366 33.9796 39.0065 34.2249 39.0011C34.4702 38.9957 34.708 38.9154 34.9062 38.7708C35.1045 38.6263 35.2537 38.4245 35.3339 38.1926C35.414 37.9607 35.4212 37.7098 35.3546 37.4737L33.1597 29.7936L38.603 24.8952C38.9594 24.5736 39.0902 24.072 38.9366 23.6172V23.6172Z" fill="white"/>
</svg>
