<svg width="54" height="54" viewBox="0 0 54 54" fill="none" xmlns="http://www.w3.org/2000/svg">
<g filter="url(#filter0_b_121_3)">
<rect x="1" y="1" width="52" height="52" rx="16" fill="#51535D"/>
<rect x="1" y="1" width="52" height="52" rx="16" stroke="url(#paint0_linear_121_3)" stroke-opacity="0.4"/>
</g>
<path d="M34.2012 36.6H36.6V39H27C20.3724 39 15 33.6276 15 27C15 20.3724 20.3724 15 27 15C33.6276 15 39 20.3724 39 27C39.0015 28.8631 38.5686 30.7009 37.7356 32.3673C36.9025 34.0338 35.6924 35.4831 34.2012 36.6ZM27 24.6C27.6365 24.6 28.247 24.3471 28.6971 23.8971C29.1471 23.447 29.4 22.8365 29.4 22.2C29.4 21.5635 29.1471 20.953 28.6971 20.5029C28.247 20.0529 27.6365 19.8 27 19.8C26.3635 19.8 25.753 20.0529 25.3029 20.5029C24.8529 20.953 24.6 21.5635 24.6 22.2C24.6 22.8365 24.8529 23.447 25.3029 23.8971C25.753 24.3471 26.3635 24.6 27 24.6ZM22.2 29.4C22.8365 29.4 23.447 29.1471 23.8971 28.6971C24.3471 28.247 24.6 27.6365 24.6 27C24.6 26.3635 24.3471 25.753 23.8971 25.3029C23.447 24.8529 22.8365 24.6 22.2 24.6C21.5635 24.6 20.953 24.8529 20.5029 25.3029C20.0529 25.753 19.8 26.3635 19.8 27C19.8 27.6365 20.0529 28.247 20.5029 28.6971C20.953 29.1471 21.5635 29.4 22.2 29.4ZM31.8 29.4C32.4365 29.4 33.047 29.1471 33.4971 28.6971C33.9471 28.247 34.2 27.6365 34.2 27C34.2 26.3635 33.9471 25.753 33.4971 25.3029C33.047 24.8529 32.4365 24.6 31.8 24.6C31.1635 24.6 30.553 24.8529 30.1029 25.3029C29.6529 25.753 29.4 26.3635 29.4 27C29.4 27.6365 29.6529 28.247 30.1029 28.6971C30.553 29.1471 31.1635 29.4 31.8 29.4ZM27 34.2C27.6365 34.2 28.247 33.9471 28.6971 33.4971C29.1471 33.047 29.4 32.4365 29.4 31.8C29.4 31.1635 29.1471 30.553 28.6971 30.1029C28.247 29.6529 27.6365 29.4 27 29.4C26.3635 29.4 25.753 29.6529 25.3029 30.1029C24.8529 30.553 24.6 31.1635 24.6 31.8C24.6 32.4365 24.8529 33.047 25.3029 33.4971C25.753 33.9471 26.3635 34.2 27 34.2Z" fill="white"/>
<defs>
<filter id="filter0_b_121_3" x="-5.5" y="-5.5" width="65" height="65" filterUnits="userSpaceOnUse" color-interpolation-filters="sRGB">
<feFlood flood-opacity="0" result="BackgroundImageFix"/>
<feGaussianBlur in="BackgroundImage" stdDeviation="3"/>
<feComposite in2="SourceAlpha" operator="in" result="effect1_backgroundBlur_121_3"/>
<feBlend mode="normal" in="SourceGraphic" in2="effect1_backgroundBlur_121_3" result="shape"/>
</filter>
<linearGradient id="paint0_linear_121_3" x1="1.49057" y1="4.63998" x2="54.0941" y2="5.86094" gradientUnits="userSpaceOnUse">
<stop stop-color="white" stop-opacity="0.2"/>
<stop offset="0.475322" stop-color="white" stop-opacity="0.1"/>
<stop offset="1" stop-color="white" stop-opacity="0.2"/>
</linearGradient>
</defs>
</svg>
