<svg width="90" height="90" viewBox="0 0 90 90" fill="none" xmlns="http://www.w3.org/2000/svg">
<path d="M45.0005 30.2451L53.9694 44.0585L69.8783 48.3198L59.5125 61.1185L60.3757 77.5654L45.0005 71.662L29.6252 77.5654L30.4885 61.1185L20.1227 48.3198L36.0316 44.0585L45.0005 30.2451Z" fill="#FFD122"/>
<path d="M45 30.2451L53.9689 44.0585L69.8778 48.3198L59.512 61.1185L60.3752 77.5654L45 71.662V30.2451Z" fill="#FFD122"/>
<path d="M22.2006 64.0944L23.2928 55.0572L14.593 57.7366L6.33551 53.9053L6.19559 63.0072L0 69.6765L8.61328 72.6225L13.0416 80.5757L18.5048 73.2943L27.4372 71.5403L22.2006 64.0944Z" fill="#FFD122"/>
<path d="M83.8043 63.0072L83.6644 53.9053L75.4069 57.7366L66.7071 55.0572L67.7992 64.0944L62.5627 71.5403L71.495 73.2943L76.9583 80.5757L81.3866 72.6225L89.9999 69.6765L83.8043 63.0072Z" fill="#FFD122"/>
<path d="M18.8392 28.8444C17.8155 27.8091 17.8249 26.1398 18.8603 25.1161C19.8957 24.0924 21.5649 24.1018 22.5886 25.1372L28.9064 31.5268C29.9301 32.5622 29.9206 34.2314 28.8853 35.2552C27.8499 36.2789 26.1807 36.2694 25.1569 35.2341L18.8392 28.8444Z" fill="#139CD8"/>
<path d="M61.1086 35.2833C60.0732 34.2596 60.0637 32.5904 61.0875 31.555L67.4052 25.1653C68.4289 24.13 70.0981 24.1205 71.1335 25.1443C72.1689 26.168 72.1783 27.8372 71.1546 28.8726L64.8369 35.2622C63.8132 36.2976 62.1439 36.307 61.1086 35.2833Z" fill="#139CD8"/>
<path d="M42.3633 12.0605C42.3633 10.6043 43.5438 9.42383 45 9.42383C46.4562 9.42383 47.6367 10.6043 47.6367 12.0605V20.2161C47.6367 21.6723 46.4562 22.8528 45 22.8528C43.5438 22.8528 42.3633 21.6723 42.3633 20.2161V12.0605Z" fill="#139CD8"/>
</svg>
